<?xml version="1.0" encoding="utf-8"?>
<!-- Generator: Adobe Illustrator 16.0.0, SVG Export Plug-In . SVG Version: 6.00 Build 0)  -->
<!DOCTYPE svg PUBLIC "-//W3C//DTD SVG 1.1//EN" "http://www.w3.org/Graphics/SVG/1.1/DTD/svg11.dtd">
<svg version="1.1" id="Layer_1" xmlns="http://www.w3.org/2000/svg" xmlns:xlink="http://www.w3.org/1999/xlink" x="0px" y="0px"
	 width="960px" height="560px" viewBox="0 0 960 560" enable-background="new 0 0 960 560" xml:space="preserve">
<g>
	<path fill="#FFFFFF" d="M156.806,96.015c0,16.377-5.227,28.922-16.029,37.981c-10.802,9.06-25.786,13.59-45.299,13.59
		l-13.242-0.697l-0.348,8.363c0,5.575,0.348,10.105,1.045,13.241c0.697,3.136,1.743,5.227,3.136,6.621
		c2.788,1.742,5.576,3.484,8.711,5.575c1.394,1.394,2.439,3.833,2.439,6.621c0,5.575-3.485,9.756-10.105,12.196
		c-6.621,2.439-17.074,3.833-31.013,3.833c-14.983,0-26.134-1.394-33.104-3.833s-10.454-6.969-10.454-12.893
		c0-3.484,1.742-6.621,5.575-8.711c4.878-3.136,7.318-4.878,7.666-5.227c2.091-3.485,3.485-30.316,3.485-80.842
		c0-5.924-0.349-10.454-1.394-12.893c-1.045-2.439-2.788-4.53-5.924-5.924c-2.788-1.394-5.575-2.788-8.363-3.833
		c-2.091-1.394-3.484-3.833-3.484-7.317c0-7.666,7.317-11.499,21.953-11.499c3.136,0,5.924,0,8.363,0.348
		c2.439,0,4.53,0.349,6.969,0.349c3.485,0,11.151-0.349,23.347-1.045s20.21-1.045,24.392-1.045
		C136.247,48.276,156.806,64.305,156.806,96.015z M103.144,99.15c0-7.666-1.394-13.938-4.53-18.12
		c-3.136-4.182-7.317-6.272-12.196-6.272c-2.788,0-4.53,1.742-4.878,4.878c-0.349,3.136-0.697,7.667-0.697,13.242v5.924v9.757
		c0,5.575,0.348,9.06,0.697,10.802c0.349,1.742,1.742,2.439,3.484,2.439c5.576,0,10.105-2.091,13.242-5.924
		C101.401,111.695,103.144,106.12,103.144,99.15z"/>
	<path fill="#FFFFFF" d="M278.069,179.993c0,5.575-3.136,10.802-9.757,15.681c-7.317,5.575-15.68,8.015-25.437,8.015
		c-3.136,0-5.576-0.349-7.666-1.045c-2.091-0.697-4.182-1.742-5.924-3.485c-1.743-1.742-3.833-3.833-5.576-5.575
		c-1.045-1.045-2.09-1.394-2.788-1.394c-0.697,0-1.742,0.349-2.788,1.394s-2.091,1.394-2.788,1.742
		c-3.833,2.788-7.666,4.878-11.151,5.924c-3.484,1.045-7.666,1.742-12.893,1.742c-11.151,0-20.21-3.136-26.832-9.06
		c-6.621-5.924-10.105-13.938-10.105-23.695s4.53-18.12,13.241-25.089s19.862-10.105,32.755-10.105
		c4.182,0,9.757,0.697,16.726,1.743l0.349-10.454c0-12.893-3.136-19.514-9.06-19.514c-2.788,0-5.227,1.045-7.666,3.485
		c-1.045,0.697-3.136,3.484-6.621,7.666c-5.924,7.317-11.848,10.802-18.12,10.802c-3.833,0-6.969-1.394-9.408-3.833
		c-2.439-2.439-3.484-5.924-3.484-9.757c0-7.318,4.53-13.59,13.938-18.817C187.122,90.788,199.666,88,215.347,88
		c33.8,0,50.875,12.544,50.875,37.285l-0.697,24.392v3.136c0,7.318,0,12.196,0.349,14.635s2.439,4.182,6.272,5.227
		C275.978,174.069,278.069,176.16,278.069,179.993z M217.089,158.04c0-2.439-0.349-4.182-0.697-4.53
		c-0.349-0.348-2.091-0.697-4.53-0.697c-6.969,0-10.802,4.53-10.802,13.241c0,8.363,2.788,12.196,8.363,12.196
		c3.484,0,5.575-1.394,6.272-4.182C216.74,170.933,217.089,165.706,217.089,158.04z"/>
	<path fill="#FFFFFF" d="M400.726,115.876c0,8.363-2.438,14.984-6.969,20.21c-4.878,5.227-10.802,7.666-18.468,7.666
		c-8.015,0-14.287-2.788-18.468-8.363c-0.697-0.697-1.394-2.439-2.439-4.53c-1.045-2.091-2.091-3.136-3.136-3.136
		c-2.788,0-3.833,8.015-3.833,23.695c0,8.015,0.348,13.59,0.697,17.075c0.349,3.484,2.439,6.272,6.272,8.015
		c2.09,1.045,3.833,2.09,5.923,2.788c3.136,2.091,4.878,4.878,4.878,8.711c0,5.575-3.136,9.408-9.408,11.499
		c-6.272,2.091-16.377,3.136-30.664,3.136c-27.18,0-41.118-5.576-41.118-16.726c0-3.136,0.697-5.575,2.439-7.318
		c0.348-0.348,2.09-1.742,5.575-4.181c1.045-0.697,1.742-1.394,2.788-2.091s1.394-1.742,1.394-3.136
		c0.348-1.394,0.697-5.227,1.045-11.499c0.348-6.272,0.697-14.635,0.697-24.74v-3.485c0-2.788-0.349-4.878-0.697-5.575
		c-0.349-0.697-1.394-1.742-3.833-2.788c-3.136-1.742-5.227-3.136-6.621-4.878c-1.394-1.394-2.091-3.485-2.091-5.575
		c0-4.182,3.485-8.363,10.802-11.848c6.272-3.136,13.242-5.576,20.908-7.318s14.983-2.788,22.301-2.788
		c4.53,0,7.317,1.742,7.666,5.227c0.348,4.182,0.697,6.969,1.045,8.363c0.348,1.742,1.045,2.439,2.091,2.439
		c1.045,0,2.09-0.697,2.788-2.091c0.697-1.394,1.394-3.136,2.091-4.878c3.833-6.272,10.105-9.06,18.468-9.06
		c8.363,0,15.332,2.439,20.559,7.318C397.938,101.241,400.726,107.862,400.726,115.876z"/>
	<path fill="#FFFFFF" d="M557.184,190.795c0,5.227-2.788,8.711-8.712,10.105c-4.182,1.045-13.241,1.742-26.831,1.742h-11.15
		c-6.621,0-10.803-1.045-13.241-3.485c-1.046-1.045-3.485-4.181-6.621-8.711l-19.165-27.18c-0.697-1.045-1.742-2.091-2.439-3.484
		c-0.696-0.697-1.742-1.394-2.787-1.394c-2.091,0-2.788,1.394-2.788,4.182l0.349,3.833c0,6.272,0.697,10.454,2.439,11.499
		c1.394,1.394,3.136,2.788,4.878,4.182c1.394,1.394,2.091,3.484,2.091,6.272c0,9.757-11.499,14.287-34.846,14.287
		c-25.089,0-37.285-4.878-37.285-14.287c0-2.788,1.046-4.878,3.137-6.272c2.091-1.394,4.181-3.136,6.271-4.53
		c1.395-1.743,2.439-5.924,2.788-12.545c0.349-6.621,0.697-16.377,0.697-29.619v-32.407c0-3.833,0-7.666,0-11.847
		c-0.349-5.227-1.395-8.363-3.485-9.409c-4.181-1.394-7.317-2.788-9.06-3.484c-3.136-1.394-4.53-3.484-4.53-6.621
		c0-4.878,5.576-9.757,16.727-14.287c6.969-2.788,14.286-5.227,21.604-6.621c7.317-1.394,13.59-2.439,18.816-2.439
		c3.484,0,5.924,1.045,6.62,2.788c0.697,1.742,1.395,5.227,1.395,10.802v54.359c0,2.788,1.045,3.833,3.136,3.833
		c3.484,0,7.666-1.394,11.848-4.182s6.62-5.227,6.62-7.317c-1.394-1.743-2.438-3.136-3.484-4.53
		c-1.045-1.394-1.394-2.788-1.394-4.53c0-6.969,9.408-10.802,28.573-10.802c21.953,0,32.755,4.53,32.755,13.242
		c0,3.833-1.394,5.923-3.833,6.621c-2.438,0.697-4.878,1.045-6.969,1.742c-4.879,1.394-9.408,3.833-13.938,6.969
		c-4.53,3.136-6.62,6.272-6.62,8.363c0,2.439,2.787,7.666,8.711,15.332s14.287,18.817,25.786,32.058
		c4.182,3.485,6.969,5.924,8.711,7.318C555.789,183.826,557.184,186.962,557.184,190.795z"/>
	<path fill="#FFFFFF" d="M759.985,150.025c0,16.377-6.62,29.619-19.514,40.073c-12.893,10.454-29.967,15.68-51.571,15.68
		c-12.894,0-24.74-1.742-34.846-4.878c-10.105-3.136-17.074-6.621-20.211-10.105c-3.136-3.484-5.575-8.363-7.666-14.635
		c-2.091-6.272-2.787-13.59-2.787-21.604c0-8.711,3.484-13.241,10.104-13.241c4.182,0,8.015,2.091,11.151,6.621
		c1.742,2.788,3.484,5.227,5.575,8.015c9.757,12.893,20.907,19.165,33.104,19.165c4.878,0,8.362-1.045,11.15-2.788
		c2.787-1.742,4.182-4.182,4.182-6.969c0-3.136-2.439-5.924-6.97-8.015c-8.015-2.788-14.983-5.227-20.559-7.666
		c-29.619-11.499-44.254-28.573-44.254-51.572c0-14.635,5.575-26.831,17.074-36.588s26.134-14.635,44.603-14.635
		c5.575,0,11.15,0.349,16.029,1.394c4.878,1.045,9.408,2.091,14.286,3.136c2.091,0,4.53-0.349,7.318-1.045
		c2.787-0.697,4.878-1.045,5.575-1.045c4.878,0,9.408,2.439,13.938,7.666c3.833,4.53,6.62,9.06,8.711,13.938
		c2.091,4.878,3.136,9.06,3.136,12.893c0,4.878-1.394,9.06-4.181,11.848c-2.788,2.788-6.621,4.53-11.151,4.53
		c-3.833,0-8.015-2.091-12.893-6.272c-2.788-2.788-5.575-5.227-8.363-8.015c-6.271-5.924-13.59-8.711-22.301-8.711
		c-8.363,0-12.545,2.788-12.545,8.711c0,4.878,3.833,8.711,11.848,11.499c6.97,2.091,12.894,3.833,17.423,5.227
		c15.681,4.53,26.831,10.454,33.452,17.074C756.501,127.375,759.985,137.132,759.985,150.025z"/>
	<path fill="#FFFFFF" d="M915.746,183.129c0,5.227-4.879,9.757-14.636,13.59s-22.301,5.924-37.981,5.924
		c-2.788,0-4.53,0-5.575-0.697c-1.046-0.348-1.394-1.742-1.742-3.484s-0.349-4.53-0.349-6.969c-0.349-2.091-1.742-3.136-3.484-3.136
		c-1.395,0-2.788,0.697-4.182,1.743c-1.395,1.045-2.439,2.09-3.137,2.788c-4.529,3.484-8.711,5.924-13.241,7.317
		c-4.182,1.742-9.06,2.439-14.983,2.439c-24.044,0-35.892-13.59-35.892-40.77v-28.922c0-4.182-0.348-6.621-0.696-8.015
		c-0.349-1.394-2.091-2.788-4.53-4.53c-3.136-2.09-4.878-3.136-4.878-3.484c-1.395-1.394-2.439-3.833-2.439-6.621
		c0-3.136,1.045-5.575,3.136-7.318c2.091-1.742,5.575-3.833,10.803-5.575c8.362-3.136,16.726-5.575,24.74-7.317
		s14.287-2.439,18.468-2.439c2.788,0,4.53,0.349,5.576,1.394c1.045,1.045,1.394,2.788,1.394,5.575
		c-0.697,9.408-1.394,18.817-1.742,28.574s-0.697,18.816-0.697,27.18c0,8.363,0.697,13.938,2.439,17.423
		c1.742,3.484,4.878,5.227,9.757,5.227c5.575,0,9.408-2.091,11.15-5.924c2.091-3.833,2.788-10.802,2.788-20.907v-13.938
		c0-3.833-0.349-6.272-0.697-8.015c-0.349-1.742-2.091-3.136-4.182-4.53c-3.484-2.091-5.575-3.833-5.924-4.53
		c-0.696-1.394-1.394-3.136-1.394-5.575c0-2.788,1.045-5.227,3.136-7.318c2.091-1.742,5.576-3.833,10.454-5.575
		c8.363-3.136,16.378-5.575,24.044-7.318c7.666-1.742,13.59-2.439,17.771-2.439c3.485,0,5.228,0.697,5.924,1.742
		c0.697,1.045,1.046,4.878,1.046,10.454c0,9.06-0.349,20.908-0.697,35.891c-0.349,14.984-0.696,24.044-0.696,27.528
		c0,4.182,0.348,6.272,0.696,7.317s1.742,2.091,4.182,3.485c2.439,1.742,3.833,2.788,4.879,3.833
		C915.397,179.296,915.746,181.038,915.746,183.129z"/>
	<path fill="#FFFFFF" d="M510.142,286.271c0,3.485-1.394,6.273-4.182,8.363c-2.788,1.742-5.575,3.484-8.015,4.879
		c-2.439,2.091-3.833,17.771-3.833,47.738c0,31.361,1.046,48.436,2.788,50.875c0.349,0.349,1.742,1.394,4.182,2.439
		c4.529,2.091,6.62,5.575,6.62,10.105c0,10.453-12.893,15.332-39.027,15.332c-13.938,0-24.392-1.046-30.664-3.485
		c-6.62-2.438-9.757-6.271-9.757-11.499c0-4.878,2.439-9.06,7.317-11.848c1.046-0.696,2.439-1.394,3.485-2.09
		c1.045-0.697,2.09-1.743,2.09-3.137c0.349-1.394,0.697-4.182,1.046-8.015s0.697-8.711,0.697-15.332
		c0-5.227-0.697-8.362-2.439-9.757c-1.742-1.394-5.924-2.091-13.241-2.091c-10.454,0-17.423,1.046-20.908,2.788
		c-1.742,0.697-2.787,4.182-2.787,10.453c0,8.015,0.349,13.938,1.045,18.469c0.697,4.182,1.742,6.621,2.788,7.666
		c4.878,3.136,7.317,5.227,8.015,5.924c1.394,1.742,1.742,3.833,1.742,5.924c0,10.802-13.938,16.029-41.467,16.029
		c-25.437,0-38.33-5.228-38.33-16.029c0-3.833,1.045-6.621,3.484-8.015c0.349,0,2.788-1.394,7.666-3.484
		c3.485-1.394,4.879-16.727,4.879-45.3c0-17.074-0.349-29.967-0.697-38.679c-0.348-8.712-1.394-13.59-2.439-14.983
		c-3.833-1.395-6.621-3.137-8.711-4.879s-3.136-3.832-3.136-6.969c0-10.105,13.59-15.332,41.118-15.332
		c26.134,0,39.027,4.53,39.027,13.938c0,2.788-0.696,4.879-1.742,6.273c-1.045,1.393-3.136,3.136-5.924,4.529
		c-2.787,1.742-4.53,3.484-5.227,5.924c-0.697,2.439-1.046,5.924-1.046,10.802v8.015c0,4.53,1.046,7.318,2.788,8.363
		s6.272,1.742,12.893,1.742c9.757,0,16.378-0.697,19.514-2.091c1.742-0.696,2.439-3.833,2.439-9.757v-2.787
		c0-10.454-1.394-17.074-4.182-19.166c-2.091-1.394-4.182-2.438-5.924-3.832c-2.091-1.742-3.136-4.182-3.136-7.666
		c0-5.576,3.136-9.757,9.757-11.848c6.62-2.091,17.423-3.136,32.755-3.136c13.59,0,23.347,1.045,29.619,3.136
		C507.354,277.212,510.142,281.045,510.142,286.271z"/>
	<path fill="#FFFFFF" d="M652.313,325.647c0,3.485-0.697,6.272-2.439,7.666c-1.742,1.395-4.182,2.788-8.015,4.53
		c-3.833,1.394-6.62,3.484-8.363,6.272c-1.045,1.742-3.136,5.924-5.575,12.893c-9.06,25.438-18.468,50.875-27.528,75.964
		c-12.195,21.953-27.876,32.755-47.39,32.755c-10.454,0-19.165-2.787-25.438-8.015c-6.272-5.227-9.408-12.544-9.408-21.256
		c0-5.924,2.091-10.802,5.924-14.983s8.362-5.924,13.59-5.924c8.015,0,13.59,3.484,16.726,10.802
		c0.349,1.046,1.394,4.182,2.788,10.105c0.696,2.788,2.091,4.53,3.833,4.53c3.484,0,5.227-2.439,5.227-6.969
		c0-3.833-1.394-9.061-4.182-16.378c-1.742-4.182-5.575-12.893-11.499-25.786l-16.029-34.846c-2.438-5.227-3.833-8.015-3.833-8.711
		c-1.394-2.788-3.484-4.53-5.924-5.924c-3.833-2.091-6.271-3.484-6.62-3.833c-2.091-1.742-2.788-4.182-2.788-7.666
		c0-11.499,13.938-17.423,42.164-17.423c12.195,0,20.907,1.045,26.134,2.787s7.666,5.228,7.666,10.803
		c0,2.787-1.045,5.575-3.484,7.317c-2.439,2.091-3.484,3.484-3.484,4.53c0,2.091,1.394,6.271,3.833,12.893
		c2.787,6.621,5.924,9.757,9.408,9.757c3.136,0,5.924-3.136,8.711-9.06c1.395-2.788,2.439-5.575,3.137-8.015
		c0.696-2.439,1.045-3.833,1.045-4.53c0-1.394-1.742-4.182-5.575-8.015c-2.091-2.091-2.787-4.182-2.787-5.924
		c0-8.362,8.711-12.544,26.482-12.544C644.298,312.755,652.313,316.937,652.313,325.647z"/>
	<path fill="#FFFFFF" d="M802.148,406.142c0,5.227-4.878,9.757-14.635,13.59s-22.301,5.924-37.981,5.924
		c-2.788,0-4.53-0.349-5.576-0.697c-1.045-0.349-1.394-1.394-1.742-3.833c-0.349-2.091-0.349-4.529-0.349-6.969
		c-0.348-2.091-1.742-3.137-3.484-3.137c-1.394,0-2.787,0.697-4.182,1.742c-1.394,1.046-2.438,2.091-3.136,2.788
		c-4.53,3.484-8.711,5.924-13.241,7.317c-4.53,1.395-9.06,2.439-14.983,2.439c-24.044,0-35.892-13.59-35.892-40.77v-28.922
		c0-4.182-0.349-6.621-0.697-8.015c-0.348-1.394-2.09-2.788-4.529-4.53c-3.137-2.09-4.879-3.136-4.879-3.484
		c-1.394-1.394-2.438-3.833-2.438-6.62c0-3.137,1.045-5.575,3.136-7.318c2.091-1.742,5.575-3.833,10.802-5.575
		c8.363-3.136,16.727-5.575,24.741-7.317s14.286-2.439,18.468-2.439c2.788,0,4.53,0.349,5.575,1.395
		c1.046,1.045,1.395,2.787,1.395,5.575c-0.697,9.408-1.395,18.816-1.742,28.573c-0.349,9.757-0.697,18.816-0.697,27.18
		s0.697,13.938,2.439,17.423s4.878,5.227,9.757,5.227c5.575,0,9.408-2.091,11.15-5.924c2.091-3.833,2.787-10.802,2.787-20.907
		v-13.938c0-3.833-0.349-6.271-0.696-8.015c-0.349-1.742-2.091-3.136-4.182-4.529c-3.484-2.091-5.575-3.833-5.924-4.53
		c-0.697-1.394-1.394-3.136-1.394-5.575c0-2.788,1.045-5.227,3.136-7.317c2.091-1.742,5.575-3.833,10.454-5.924
		c8.362-3.137,16.377-5.575,24.043-7.317c7.666-1.743,13.59-2.439,17.771-2.439c3.484,0,5.227,0.696,5.924,1.742
		c0.697,1.394,1.046,4.878,1.046,10.454c0,9.06-0.349,20.907-0.697,35.891s-0.697,25.786-0.697,29.271
		c0,4.182,0.349,6.272,0.697,7.317c0.349,1.046,1.742,2.091,4.182,3.484c2.438,1.395,3.833,2.788,4.878,3.833
		C801.452,402.309,802.148,404.051,802.148,406.142z"/>
	<path fill="#FFFFFF" d="M956.516,411.02c0,5.576-3.137,9.757-9.408,11.848c-6.272,2.091-16.727,3.137-31.013,3.137
		c-19.514,0-29.619-4.182-29.619-12.894c0-2.091,0.697-3.484,1.742-4.878c1.046-1.394,2.091-2.788,3.484-3.833
		c2.091-3.137,3.137-7.317,3.484-12.894c0.349-5.575,0.349-12.195,0.349-20.21c0-8.363-1.045-14.636-3.136-18.469
		c-2.091-4.181-5.227-5.924-10.105-5.924c-3.833,0-6.272,1.743-8.015,4.879s-2.091,8.363-2.091,14.983
		c0,19.862,0.697,31.361,2.439,34.497c1.394,1.395,2.091,2.788,2.788,3.833c1.394,2.091,2.091,4.53,2.091,6.97
		c0,5.227-3.137,9.06-9.061,11.15s-15.681,3.137-28.922,3.137c-9.757,0-17.074-1.395-22.301-3.833
		c-5.228-2.439-7.666-6.272-7.666-10.803c0-2.787,1.045-5.227,3.484-7.317c1.394-1.394,3.136-2.439,4.53-3.833
		c0.696-1.394,1.394-5.575,1.742-12.893c0.348-7.318,0.348-17.075,0.348-29.968v-3.484c0-3.484-0.348-5.924-0.696-6.621
		c-0.349-1.045-2.091-2.439-4.879-4.182c-4.181-2.787-6.62-5.924-6.62-9.06c0-4.878,4.182-9.408,12.893-13.241
		c8.712-3.833,16.727-6.621,24.044-8.363s13.241-2.787,17.074-2.787c5.575,0,8.711,3.136,8.711,9.757
		c0,5.923,1.046,8.711,2.788,8.711c0.697,0,1.742-0.697,2.439-1.742c0.696-1.046,1.742-2.788,2.787-4.182
		c5.575-7.317,14.287-11.15,25.438-11.15c7.317,0,13.938,1.394,19.862,3.833s10.454,5.924,13.938,10.105
		c2.787,3.833,4.878,8.362,6.271,13.938c1.395,5.575,1.742,11.847,1.742,19.165c0,7.666,0,13.938-0.348,18.468
		c-0.349,4.53-0.349,8.712-0.349,12.893c0,3.137,0.349,5.576,0.696,6.97c0.35,1.394,1.743,3.484,3.834,5.575
		c1.045,1.394,2.439,2.439,3.484,3.484C956.167,407.187,956.516,408.93,956.516,411.02z"/>
</g>
<path fill="#F4C892" d="M135.898,403.354L135.898,403.354c-5.924-5.575-23.695-16.028-31.709-17.074l-17.423-2.439l11.847-91.295
	c10.105,1.394,17.771,0.696,19.862-0.697l68.995-31.71c8.711-3.833,14.983-3.484,19.513,2.788l0,0
	c4.879,6.272,3.485,14.983-2.788,19.514l-22.301,17.074c-2.09,1.394-1.045,4.879,1.394,5.227l110.113,14.636
	c7.666,1.045,13.241,7.666,12.544,15.332c-0.697,8.015-8.015,13.59-15.681,12.544l16.377,2.091
	c7.666,1.046,13.241,8.015,12.196,15.681l0,0c-1.045,7.666-8.015,13.241-15.681,12.196l-19.862-2.788
	c7.666,1.046,13.241,8.015,12.196,15.681l0,0c-1.045,7.666-8.014,13.241-15.68,12.196l-19.166-2.439
	c7.666,1.046,13.242,8.015,12.196,15.681l0,0c-1.045,7.666-8.015,13.241-15.681,12.196l-98.265-14.287
	C149.488,412.414,141.822,408.581,135.898,403.354z"/>
<g>
	<path fill="#E2B583" d="M271.797,415.55L271.797,415.55c0.348-2.439,0-4.878-1.045-7.317c-2.788,3.833-7.666,5.924-12.893,5.227
		l-46.693-6.62c-7.666-1.046-14.635,4.181-15.681,11.847l0,0l60.283,8.712C263.434,428.791,270.751,423.216,271.797,415.55z"/>
	<path fill="#E2B583" d="M259.601,399.869l19.166,2.439c7.666,1.045,14.635-4.53,15.68-12.196l0,0c0.349-2.439,0-4.878-1.045-7.317
		c-3.136,3.833-7.666,5.924-12.893,5.227l-19.166-2.438l-46.345-5.924c-7.666-1.046-14.635,4.529-15.681,12.195l0,0L259.601,399.869
		z"/>
	<path fill="#E2B583" d="M302.461,377.22c7.666,1.045,14.635-4.53,15.681-12.196l0,0c0.349-2.439,0-4.878-1.045-7.317
		c-3.136,3.833-7.666,5.924-12.893,5.227l-85.72-11.15c-7.666-1.046-14.635,4.53-15.681,12.196l0,0L302.461,377.22z"/>
</g>
<path fill="#EFCEBD" d="M289.917,347.252c7.666,1.046,14.984-4.529,15.681-12.544c0.348-2.439,0-4.879-1.045-6.97
	c-3.136,3.833-7.666,5.924-12.893,5.228l-69.343-9.061c-7.666-1.045-14.635,4.53-15.681,12.196l0,0L289.917,347.252z"/>
<path fill="#FED9A8" d="M222.316,436.108L222.316,436.108c-8.015,1.395-27.18,9.061-32.755,14.984l-12.544,12.544l-65.162-64.813
	c7.317-7.318,11.15-13.938,11.499-16.378l16.726-74.222c0-7.666,6.272-13.938,13.938-13.938l0,0c7.666,0,13.938,6.271,13.938,13.938
	l-0.349,28.226c0,2.439,3.136,3.833,4.878,2.091l78.403-78.403c5.576-5.575,14.287-5.924,19.862-0.348
	c5.924,5.575,5.924,14.635,0.348,20.21l11.5-11.499c5.575-5.575,14.287-5.575,19.862,0l0,0c5.575,5.575,5.575,14.286,0,19.862
	l-14.287,14.286c5.575-5.575,14.287-5.575,19.862,0l0,0c5.576,5.575,5.576,14.287,0,19.862l-13.59,13.59
	c5.576-5.575,14.287-5.575,19.862,0l0,0c5.575,5.575,5.575,14.287,0,19.862l-70.737,69.691
	C237.997,430.882,230.33,434.715,222.316,436.108z"/>
<g>
	<path fill="#F4C892" d="M314.657,335.753L314.657,335.753c-1.743-1.742-3.833-3.136-6.272-3.484c1.394,4.53,0,9.757-3.484,13.59
		l-33.452,33.104c-5.575,5.227-5.575,14.287,0,19.514l0,0l43.557-42.86C320.232,350.04,320.232,341.328,314.657,335.753z"/>
	<path fill="#F4C892" d="M294.795,335.753l13.59-13.59c5.575-5.575,5.575-14.286,0-19.862l0,0c-1.742-1.742-3.833-3.136-6.272-3.484
		c1.394,4.53,0,9.757-3.484,13.59l-13.59,13.59l-33.452,33.452c-5.227,5.575-5.227,14.287,0,19.514l0.349,0.349L294.795,335.753z"/>
	<path fill="#F4C892" d="M302.81,288.015c5.575-5.575,5.575-14.287,0-19.862l0,0c-1.742-1.742-3.833-3.136-6.272-3.484
		c1.394,4.53,0,9.757-3.484,13.59l-61.329,61.328c-5.227,5.575-5.227,14.287,0,19.514l0.349,0.349L302.81,288.015z"/>
	<path fill="#F4C892" d="M271.448,279.651c5.575-5.575,5.575-14.635-0.349-20.21c-1.742-1.742-3.833-2.788-5.923-3.484
		c1.045,4.53,0,9.757-3.485,13.59l-49.829,50.178c-5.227,5.575-5.227,14.286,0,19.513l0.348,0.349L271.448,279.651z"/>
</g>
<path fill="#FFFFFF" d="M81.539,287.666l-12.544,95.129c-0.349,2.091,1.045,3.833,3.136,4.182l20.907,2.787
	c2.091,0.349,3.833-1.045,4.182-3.136l12.544-95.129c0.348-2.091-1.045-3.833-3.136-4.182l-20.907-2.788
	C83.63,284.182,81.539,285.575,81.539,287.666z"/>
<path fill="#F7F7F7" d="M71.782,386.977l20.907,2.787c2.091,0.349,3.833-1.045,4.182-3.136l5.924-44.603l-28.225-5.227
	l-6.272,45.996C68.298,384.886,69.691,386.628,71.782,386.977z"/>
<path fill="#0E6EB8" d="M43.557,276.167L29.271,384.188c-0.349,2.439,1.394,4.53,3.833,4.53l41.118,3.136
	c2.091,0,4.182-1.394,4.53-3.484l13.938-103.491c0.349-2.092-1.045-4.182-3.136-4.53l-40.77-7.666
	C45.997,272.334,43.906,273.728,43.557,276.167z"/>
<path fill="#0E6EB8" d="M78.403,388.37l3.833-29.619c-0.348,2.091-2.439,3.137-4.181,3.137l-41.815-3.137
	c-1.743,0-2.788-1.045-3.485-2.438l-3.833,27.876c-0.348,2.439,1.394,4.53,3.833,4.53l41.118,3.136
	C76.312,392.203,78.055,390.461,78.403,388.37z"/>
<path fill="#FFFFFF" d="M97.568,409.626l67.949,67.601c1.394,1.395,3.833,1.395,5.227,0l14.983-14.983
	c1.394-1.394,1.394-3.833,0-5.227l-67.949-67.601c-1.394-1.395-3.833-1.395-5.227,0l-14.984,14.983
	C96.174,405.793,96.174,408.232,97.568,409.626z"/>
<path fill="#F7F7F7" d="M185.728,457.017l-33.8-33.801l-20.21,20.211l33.8,33.8c1.394,1.395,3.833,1.395,5.227,0l14.983-14.983
	C187.122,460.85,187.122,458.41,185.728,457.017z"/>
<path fill="#0E6EB8" d="M65.51,432.624l77.358,77.01c1.742,1.742,4.53,1.742,5.924,0l27.528-31.013c1.394-1.743,1.394-4.182,0-5.576
	l-73.873-73.872c-1.394-1.395-3.833-1.743-5.575,0L66.207,426.7C63.768,428.095,63.768,430.882,65.51,432.624z"/>
<path fill="#0E6EB8" d="M148.443,509.285l27.528-31.013c1.394-1.742,1.394-4.182,0-5.575l-22.301-22.302
	c1.045,1.394,1.045,3.833-0.349,5.227l-27.528,31.013c-1.394,1.742-4.181,1.742-5.924,0.349l-54.708-54.708l0.348,0.349
	l77.358,77.01C144.261,511.376,147.049,511.027,148.443,509.285z"/>
<path fill="#FFE0BB" d="M238.345,379.659l-27.528-27.528c-6.272-6.272-16.029-6.272-22.301,0l-1.394,1.394
	c-4.53,4.53-10.454,6.969-16.726,6.969c-6.272,0-12.196-2.438-16.726-6.969l0,0c-1.045-1.045-2.788-0.697-3.136,1.046l-7.318,32.755
	l0,0c-0.697,3.833,0.349,7.666,3.136,10.104l28.225,28.226c3.484,3.484,8.711,4.182,13.241,2.091
	c10.802-5.924,24.044-10.105,30.316-11.499c4.182-0.697,7.666-2.788,10.802-5.575l9.06-8.712
	C244.617,395.688,244.617,385.582,238.345,379.659z"/>
<path d="M275.978,416.247c0.349-3.485,0-6.97-1.394-10.105l3.833,0.349c4.878,0.696,9.757-0.697,13.59-3.484
	c3.833-3.137,6.272-7.318,6.969-12.196c0.348-3.484,0-6.97-1.394-10.105l4.53,0.697c4.878,0.696,9.757-0.697,13.59-3.485
	c3.833-3.136,6.272-7.317,6.969-12.195c0.349-3.833,0-7.666-1.742-10.803c1.742-2.787,2.439-5.924,2.439-9.408
	c0-4.878-1.742-9.408-5.227-12.893l0,0c-2.439-2.439-5.575-4.182-9.06-4.879l2.788-2.787c3.485-3.484,5.227-8.015,5.227-12.894
	c0-4.878-1.742-9.407-5.227-12.893l0,0c-2.439-2.438-5.575-4.182-8.711-4.878l3.136-3.137c3.485-3.484,5.227-8.014,5.227-12.893
	c0-4.878-1.742-9.409-5.227-12.893l0,0c-3.484-3.484-8.015-5.227-12.893-5.227c-4.879,0-9.409,2.091-12.893,5.227l-0.697,0.697
	c-0.697-3.484-2.439-6.621-5.227-9.06c-7.318-6.621-18.817-6.621-25.786,0.697l-46.345,45.299l-15.332-2.091l19.862-14.983
	c8.015-6.272,9.409-17.771,3.485-25.786c-8.711-11.15-20.908-5.575-24.741-3.833l-19.513,9.06c-2.091,1.045-3.136,3.484-2.091,5.575
	s3.484,3.136,5.575,2.091l19.514-9.06c9.408-4.181,12.196-1.394,14.635,1.394c3.136,4.182,2.439,10.454-1.742,13.59l-22.65,17.075
	c-2.439,1.742-3.485,4.878-2.788,7.666c0.697,2.787,3.136,4.878,5.924,5.227l12.196,1.742l-22.65,22.649l0.349-25.089
	c0-10.105-8.363-18.468-18.468-18.119c-0.348,0-0.697,0-1.045,0l0,0c-4.53,0.348-8.711,2.09-11.848,5.227
	c-2.788,2.787-4.53,6.621-5.227,10.453l0,0c0,0.35,0,0.697,0,0.697l0,0c0,0.349,0,0.697,0,1.046l0,0l-16.377,73.873v0.349l0,0l0,0
	l0,0l0,0l0,0l0,0c0,0,0,0,0,0.348l0,0c0,0.349-0.349,0.697-0.697,1.046l0,0c0,0,0,0,0,0.349c0,0,0,0,0,0.348l0,0
	c-1.045-0.348-2.09-0.696-2.788-0.696c-0.697,0-1.742,0-2.439,0.349c-2.788-1.046-5.575-2.091-8.015-2.439l0,0l-2.439-0.349
	l9.757-72.479l1.394-11.498c2.788-0.35,5.575-0.697,7.318-1.743l31.013-14.286c2.09-1.046,3.136-3.485,2.09-5.576
	c-1.045-2.091-3.484-3.136-5.575-2.091l-31.361,14.287h-0.348c-0.349,0-1.045,0.349-2.788,0.697
	c-0.697-3.136-3.485-5.228-6.621-5.924l-10.802-1.394c-1.045-2.788-3.136-4.879-6.272-5.576l-40.77-7.666
	c-2.091-0.349-4.53,0-6.621,1.394c-1.742,1.394-3.136,3.485-3.484,5.576L25.786,382.446c-0.348,2.439,0.349,4.53,1.743,6.272
	c0.348,0.349,0.348,0.349,0.697,0.697c1.394,1.394,3.136,2.438,5.227,2.438l41.118,3.137c3.136,0.349,5.924-1.046,7.666-3.485
	l10.802,1.395c2.091,0.349,4.182-0.349,5.924-1.742c1.045-0.697,1.742-1.742,2.091-2.788l3.136,0.349
	c0.348,0,1.045,0.349,1.742,0.349l-3.485,3.484c-2.788-1.046-5.924-0.349-8.014,1.742l-30.665,27.528
	c-1.742,1.394-2.788,3.833-2.788,5.924c0,2.439,0.697,4.529,2.439,6.272l0,0l0,0l77.357,77.009c1.742,1.742,3.833,2.439,6.272,2.439
	c2.439,0,4.53-1.046,5.924-2.788l27.528-31.013c2.091-2.439,2.439-5.575,1.742-8.015l7.666-7.666
	c1.394-1.394,2.439-3.484,2.439-5.575c0-1.045-0.349-2.439-0.697-3.484l2.091-2.091c2.091-2.091,6.621-4.53,12.544-7.317
	c2.091-1.046,3.136-3.485,2.091-5.576c-1.045-2.09-3.484-3.136-5.575-2.09c-4.878,2.09-11.499,5.575-14.984,9.06l0,0l-1.742,1.742
	l-25.438-25.438l-34.497-34.148c1.394-2.439,2.788-4.879,3.136-6.621l0,0l16.726-74.222c0-0.348,0-0.696,0-1.045
	c0-5.227,4.53-9.757,9.757-9.757c5.227,0,9.757,4.53,9.757,9.757l-1.742,29.619c0,2.787,1.742,5.575,4.53,6.62
	c2.788,1.046,5.924,0.697,7.666-1.394l31.361-31.361l0,0l47.042-47.39c3.833-3.833,10.105-4.181,13.938-0.348
	c2.091,1.742,3.136,4.181,3.136,6.969c0,2.788-1.045,5.227-2.788,6.969l0,0l-59.935,59.586c-1.742,1.742-1.742,4.53,0,5.924l0,0
	c1.742,1.742,4.53,1.742,5.924,0l59.586-59.587l0,0l0,0l0,0l11.499-11.499c1.743-1.742,4.182-2.788,6.969-2.788
	c2.439,0,4.878,1.045,6.969,2.788l0,0c1.742,1.742,2.788,4.181,2.788,6.969c0,2.439-1.045,4.879-2.788,6.969l0,0l-71.085,71.086
	c-1.742,1.742-1.742,4.529,0,5.924l0,0c1.742,1.742,4.53,1.742,5.924,0l56.799-56.799l0,0c1.742-1.742,4.181-2.788,6.969-2.788
	c2.788,0,4.878,1.046,6.969,2.788l0,0c1.742,1.742,2.788,4.182,2.788,6.969c0,2.439-1.045,4.879-2.788,6.97l-56.798,57.146
	c-1.742,1.742-1.742,4.53,0,5.924l0,0c1.742,1.742,4.53,1.742,5.924,0l43.208-43.209l0,0c3.833-3.833,10.105-3.833,13.938,0l0,0
	c1.742,1.743,2.788,4.182,2.788,6.97c0,2.439-1.045,4.878-2.788,6.969l0,0l-70.737,69.691c-0.349,0.349-0.349,0.349-0.697,0.697l0,0
	l0,0c-5.227,4.878-11.499,8.015-18.468,9.408c-2.439,0.349-3.833,2.788-3.484,4.879c0.349,2.438,2.788,3.833,4.878,3.484
	c8.015-1.395,15.332-4.879,21.256-10.105l10.802,1.742C265.176,433.321,274.584,426.352,275.978,416.247z M33.452,384.537
	l14.287-107.673l40.072,7.666L73.873,387.673L33.452,384.537z M83.281,384.188l12.544-94.083l9.409,1.394v1.394l0,0l-9.06,67.601
	l-3.485,25.09L83.281,384.188z M172.486,475.484L172.486,475.484L172.486,475.484l-27.18,30.664l-77.009-76.66l30.315-27.18
	l37.285,36.588L172.486,475.484z M161.336,438.548l20.21,20.211l0,0l0.697,0.696l-6.621,6.97l-33.452-33.452l-33.452-33.452
	l6.621-6.969L161.336,438.548z M313.96,362.236c0,0.696,0,1.742,0,2.438c-0.697,5.228-5.575,9.061-10.802,8.363L313.96,362.236z
	 M289.917,385.931c0.349,1.395,0.349,2.788,0.349,4.182c-0.697,5.228-5.576,9.06-10.802,8.363l-1.742-0.349L289.917,385.931z
	 M263.782,421.474c-2.091,1.742-4.53,2.091-7.317,2.091l-4.182-0.697l13.938-13.59c1.045,1.742,1.394,3.833,1.045,5.924
	C266.918,417.641,265.873,420.08,263.782,421.474z"/>
</svg>
